# surface
v 0.1875 0.25 0.03125
v -0.1875 0.25 0.03125
v -0.1875 -0.25 0.03125
v 0.1875 -0.25 0.03125
v -0.1875 0.25 -0.03125
v 0.1875 0.25 -0.03125
v 0.1875 -0.25 -0.03125
v -0.1875 -0.25 -0.03125
v 0.1875 0.25 -0.03125
v 0.1875 0.25 0.03125
v 0.1875 -0.25 0.03125
v 0.1875 -0.25 -0.03125
v 0.1875 -0.25 0.03125
v -0.1875 -0.25 0.03125
v -0.1875 -0.25 -0.03125
v 0.1875 -0.25 -0.03125
v -0.1875 0.25 0.03125
v -0.1875 0.25 -0.03125
v -0.1875 -0.25 -0.03125
v -0.1875 -0.25 0.03125
v 0.1875 0.25 -0.03125
v -0.1875 0.25 -0.03125
v -0.1875 0.25 0.03125
v 0.1875 0.25 0.03125
vn 0 0 1
vn 0 0 1
vn 0 0 1
vn 0 0 1
vn 0 0 -1
vn 0 0 -1
vn 0 0 -1
vn 0 0 -1
vn 1 0 0
vn 1 0 0
vn 1 0 0
vn 1 0 0
vn 0 -1 0
vn 0 -1 0
vn 0 -1 0
vn 0 -1 0
vn -1 0 0
vn -1 0 0
vn -1 0 0
vn -1 0 0
vn 0 1 0
vn 0 1 0
vn 0 1 0
vn 0 1 0
vt 0.34375 0.5
vt 0.25 0.5
vt 0.25 0.25
vt 0.34375 0.25
vt 0.453125 0.5
vt 0.359375 0.5
vt 0.359375 0.25
vt 0.453125 0.25
vt 0.359375 0.5
vt 0.34375 0.5
vt 0.34375 0.25
vt 0.359375 0.25
vt 0.4375 0.53125
vt 0.34375 0.53125
vt 0.34375 0.5
vt 0.4375 0.5
vt 0.25 0.5
vt 0.234375 0.5
vt 0.234375 0.25
vt 0.25 0.25
vt 0.34375 0.53125
vt 0.25 0.53125
vt 0.25 0.5
vt 0.34375 0.5
f 1/1/1 3/3/3 4/4/4
f 1/1/1 2/2/2 3/3/3
f 5/5/5 7/7/7 8/8/8
f 5/5/5 6/6/6 7/7/7
f 9/9/9 11/11/11 12/12/12
f 9/9/9 10/10/10 11/11/11
f 13/13/13 15/15/15 16/16/16
f 13/13/13 14/14/14 15/15/15
f 17/17/17 19/19/19 20/20/20
f 17/17/17 18/18/18 19/19/19
f 21/21/21 23/23/23 24/24/24
f 21/21/21 22/22/22 23/23/23

# pivot
v 0.0625 -3.72529E-09 0.08838835
v -0.0625 -3.72529E-09 0.08838835
v -0.0625 -0.08838835 -3.72529E-09
v 0.0625 -0.08838835 -3.72529E-09
v -0.0625 0.08838835 3.72529E-09
v 0.0625 0.08838835 3.72529E-09
v 0.0625 3.72529E-09 -0.08838835
v -0.0625 3.72529E-09 -0.08838835
v 0.0625 0.08838835 3.72529E-09
v 0.0625 -3.72529E-09 0.08838835
v 0.0625 -0.08838835 -3.72529E-09
v 0.0625 3.72529E-09 -0.08838835
v 0.0625 -0.08838835 -3.72529E-09
v -0.0625 -0.08838835 -3.72529E-09
v -0.0625 3.72529E-09 -0.08838835
v 0.0625 3.72529E-09 -0.08838835
v -0.0625 -3.72529E-09 0.08838835
v -0.0625 0.08838835 3.72529E-09
v -0.0625 3.72529E-09 -0.08838835
v -0.0625 -0.08838835 -3.72529E-09
v 0.0625 0.08838835 3.72529E-09
v -0.0625 0.08838835 3.72529E-09
v -0.0625 -3.72529E-09 0.08838835
v 0.0625 -3.72529E-09 0.08838835
vn 0 -0.7071068 0.7071068
vn 0 -0.7071068 0.7071068
vn 0 -0.7071068 0.7071068
vn 0 -0.7071068 0.7071068
vn 0 0.7071068 -0.7071068
vn 0 0.7071068 -0.7071068
vn 0 0.7071068 -0.7071068
vn 0 0.7071068 -0.7071068
vn 1 0 0
vn 1 0 0
vn 1 0 0
vn 1 0 0
vn 0 -0.7071068 -0.7071068
vn 0 -0.7071068 -0.7071068
vn 0 -0.7071068 -0.7071068
vn 0 -0.7071068 -0.7071068
vn -1 0 0
vn -1 0 0
vn -1 0 0
vn -1 0 0
vn 0 0.7071068 0.7071068
vn 0 0.7071068 0.7071068
vn 0 0.7071068 0.7071068
vn 0 0.7071068 0.7071068
vt 0.28125 0.5
vt 0.25 0.5
vt 0.25 0.4375
vt 0.28125 0.4375
vt 0.34375 0.5
vt 0.3125 0.5
vt 0.3125 0.4375
vt 0.34375 0.4375
vt 0.3125 0.5
vt 0.28125 0.5
vt 0.28125 0.4375
vt 0.3125 0.4375
vt 0.3125 0.5625
vt 0.28125 0.5625
vt 0.28125 0.5
vt 0.3125 0.5
vt 0.25 0.5
vt 0.21875 0.5
vt 0.21875 0.4375
vt 0.25 0.4375
vt 0.28125 0.5625
vt 0.25 0.5625
vt 0.25 0.5
vt 0.28125 0.5
f 25/25/25 27/27/27 28/28/28
f 25/25/25 26/26/26 27/27/27
f 29/29/29 31/31/31 32/32/32
f 29/29/29 30/30/30 31/31/31
f 33/33/33 35/35/35 36/36/36
f 33/33/33 34/34/34 35/35/35
f 37/37/37 39/39/39 40/40/40
f 37/37/37 38/38/38 39/39/39
f 41/41/41 43/43/43 44/44/44
f 41/41/41 42/42/42 43/43/43
f 45/45/45 47/47/47 48/48/48
f 45/45/45 46/46/46 47/47/47

# languette
v 0.0625 -0.1104854 0.1546796
v -0.0625 -0.1104854 0.1546796
v -0.0625 -0.1546796 0.1104854
v 0.0625 -0.1546796 0.1104854
v -0.0625 -0.02209709 0.06629126
v 0.0625 -0.02209709 0.06629126
v 0.0625 -0.06629127 0.02209708
v -0.0625 -0.06629127 0.02209708
v 0.0625 -0.02209709 0.06629126
v 0.0625 -0.1104854 0.1546796
v 0.0625 -0.1546796 0.1104854
v 0.0625 -0.06629127 0.02209708
v 0.0625 -0.1546796 0.1104854
v -0.0625 -0.1546796 0.1104854
v -0.0625 -0.06629127 0.02209708
v 0.0625 -0.06629127 0.02209708
v -0.0625 -0.1104854 0.1546796
v -0.0625 -0.02209709 0.06629126
v -0.0625 -0.06629127 0.02209708
v -0.0625 -0.1546796 0.1104854
v 0.0625 -0.02209709 0.06629126
v -0.0625 -0.02209709 0.06629126
v -0.0625 -0.1104854 0.1546796
v 0.0625 -0.1104854 0.1546796
vn 0 -0.7071068 0.7071068
vn 0 -0.7071068 0.7071068
vn 0 -0.7071068 0.7071068
vn 0 -0.7071068 0.7071068
vn 0 0.7071068 -0.7071068
vn 0 0.7071068 -0.7071068
vn 0 0.7071068 -0.7071068
vn 0 0.7071068 -0.7071068
vn 1 0 0
vn 1 0 0
vn 1 0 0
vn 1 0 0
vn 0 -0.7071068 -0.7071068
vn 0 -0.7071068 -0.7071068
vn 0 -0.7071068 -0.7071068
vn 0 -0.7071068 -0.7071068
vn -1 0 0
vn -1 0 0
vn -1 0 0
vn -1 0 0
vn 0 0.7071068 0.7071068
vn 0 0.7071068 0.7071068
vn 0 0.7071068 0.7071068
vn 0 0.7071068 0.7071068
vt 0.28125 0.5
vt 0.25 0.5
vt 0.25 0.46875
vt 0.28125 0.46875
vt 0.34375 0.5
vt 0.3125 0.5
vt 0.3125 0.46875
vt 0.34375 0.46875
vt 0.3125 0.5
vt 0.28125 0.5
vt 0.28125 0.46875
vt 0.3125 0.46875
vt 0.3125 0.5625
vt 0.28125 0.5625
vt 0.28125 0.5
vt 0.3125 0.5
vt 0.25 0.5
vt 0.21875 0.5
vt 0.21875 0.46875
vt 0.25 0.46875
vt 0.28125 0.5625
vt 0.25 0.5625
vt 0.25 0.5
vt 0.28125 0.5
f 49/49/49 51/51/51 52/52/52
f 49/49/49 50/50/50 51/51/51
f 53/53/53 55/55/55 56/56/56
f 53/53/53 54/54/54 55/55/55
f 57/57/57 59/59/59 60/60/60
f 57/57/57 58/58/58 59/59/59
f 61/61/61 63/63/63 64/64/64
f 61/61/61 62/62/62 63/63/63
f 65/65/65 67/67/67 68/68/68
f 65/65/65 66/66/66 67/67/67
f 69/69/69 71/71/71 72/72/72
f 69/69/69 70/70/70 71/71/71

