# bouton
v -0.07187498 0.125 0.03125
v -0.071875 -0.125 0.03125
v 0.07187498 -0.125 0.03125
v 0.071875 0.125 0.03125
v -0.071875 -0.125 -0.03125
v -0.07187498 0.125 -0.03125
v 0.071875 0.125 -0.03125
v 0.07187498 -0.125 -0.03125
v -0.07187498 0.125 -0.03125
v -0.07187498 0.125 0.03125
v 0.071875 0.125 0.03125
v 0.071875 0.125 -0.03125
v 0.071875 0.125 0.03125
v 0.07187498 -0.125 0.03125
v 0.07187498 -0.125 -0.03125
v 0.071875 0.125 -0.03125
v -0.071875 -0.125 0.03125
v -0.071875 -0.125 -0.03125
v 0.07187498 -0.125 -0.03125
v 0.07187498 -0.125 0.03125
v -0.07187498 0.125 -0.03125
v -0.071875 -0.125 -0.03125
v -0.071875 -0.125 0.03125
v -0.07187498 0.125 0.03125
vn 0 0 1
vn 0 0 1
vn 0 0 1
vn 0 0 1
vn 0 0 -1
vn 0 0 -1
vn 0 0 -1
vn 0 0 -1
vn 5.960465E-08 1 0
vn 5.960465E-08 1 0
vn 5.960465E-08 1 0
vn 5.960465E-08 1 0
vn 1 -5.960465E-08 0
vn 1 -5.960465E-08 0
vn 1 -5.960465E-08 0
vn 1 -5.960465E-08 0
vn -5.960465E-08 -1 0
vn -5.960465E-08 -1 0
vn -5.960465E-08 -1 0
vn -5.960465E-08 -1 0
vn -1 5.960465E-08 0
vn -1 5.960465E-08 0
vn -1 5.960465E-08 0
vn -1 5.960465E-08 0
vt 0.234375 0.109375
vt 0.203125 0.109375
vt 0.203125 0.078125
vt 0.234375 0.078125
vt 0.234375 0.109375
vt 0.203125 0.109375
vt 0.203125 0.078125
vt 0.234375 0.078125
vt 0.203125 0.109375
vt 0.1953125 0.109375
vt 0.1953125 0.078125
vt 0.203125 0.078125
vt 0.234375 0.125
vt 0.203125 0.125
vt 0.203125 0.109375
vt 0.234375 0.109375
vt 0.203125 0.109375
vt 0.1953125 0.109375
vt 0.1953125 0.078125
vt 0.203125 0.078125
vt 0.234375 0.125
vt 0.203125 0.125
vt 0.203125 0.109375
vt 0.234375 0.109375
f 1/1/1 3/3/3 4/4/4
f 1/1/1 2/2/2 3/3/3
f 5/5/5 7/7/7 8/8/8
f 5/5/5 6/6/6 7/7/7
f 9/9/9 11/11/11 12/12/12
f 9/9/9 10/10/10 11/11/11
f 13/13/13 15/15/15 16/16/16
f 13/13/13 14/14/14 15/15/15
f 17/17/17 19/19/19 20/20/20
f 17/17/17 18/18/18 19/19/19
f 21/21/21 23/23/23 24/24/24
f 21/21/21 22/22/22 23/23/23

# 1
v -0.1441907 0.0002544299 0.031875
v 0.07231566 -0.1247456 0.031875
v 0.1441907 -0.0002544299 0.031875
v -0.07231566 0.1247456 0.031875
v 0.07231566 -0.1247456 -0.030625
v -0.1441907 0.0002544299 -0.030625
v -0.07231566 0.1247456 -0.030625
v 0.1441907 -0.0002544299 -0.030625
v -0.1441907 0.0002544299 -0.030625
v -0.1441907 0.0002544299 0.031875
v -0.07231566 0.1247456 0.031875
v -0.07231566 0.1247456 -0.030625
v -0.07231566 0.1247456 0.031875
v 0.1441907 -0.0002544299 0.031875
v 0.1441907 -0.0002544299 -0.030625
v -0.07231566 0.1247456 -0.030625
v 0.07231566 -0.1247456 0.031875
v 0.07231566 -0.1247456 -0.030625
v 0.1441907 -0.0002544299 -0.030625
v 0.1441907 -0.0002544299 0.031875
v -0.1441907 0.0002544299 -0.030625
v 0.07231566 -0.1247456 -0.030625
v 0.07231566 -0.1247456 0.031875
v -0.1441907 0.0002544299 0.031875
vn 0 0 1
vn 0 0 1
vn 0 0 1
vn 0 0 1
vn 0 0 -1
vn 0 0 -1
vn 0 0 -1
vn 0 0 -1
vn -0.8660254 0.5000001 0
vn -0.8660254 0.5000001 0
vn -0.8660254 0.5000001 0
vn -0.8660254 0.5000001 0
vn 0.5000001 0.8660254 0
vn 0.5000001 0.8660254 0
vn 0.5000001 0.8660254 0
vn 0.5000001 0.8660254 0
vn 0.8660254 -0.5000001 0
vn 0.8660254 -0.5000001 0
vn 0.8660254 -0.5000001 0
vn 0.8660254 -0.5000001 0
vn -0.5000001 -0.8660254 0
vn -0.5000001 -0.8660254 0
vn -0.5000001 -0.8660254 0
vn -0.5000001 -0.8660254 0
vt 0.234375 0.109375
vt 0.203125 0.109375
vt 0.203125 0.078125
vt 0.234375 0.078125
vt 0.234375 0.109375
vt 0.203125 0.109375
vt 0.203125 0.078125
vt 0.234375 0.078125
vt 0.203125 0.109375
vt 0.1953125 0.109375
vt 0.1953125 0.078125
vt 0.203125 0.078125
vt 0.234375 0.125
vt 0.203125 0.125
vt 0.203125 0.109375
vt 0.234375 0.109375
vt 0.203125 0.109375
vt 0.1953125 0.109375
vt 0.1953125 0.078125
vt 0.203125 0.078125
vt 0.234375 0.125
vt 0.203125 0.125
vt 0.203125 0.109375
vt 0.234375 0.109375
f 25/25/25 27/27/27 28/28/28
f 25/25/25 26/26/26 27/27/27
f 29/29/29 31/31/31 32/32/32
f 29/29/29 30/30/30 31/31/31
f 33/33/33 35/35/35 36/36/36
f 33/33/33 34/34/34 35/35/35
f 37/37/37 39/39/39 40/40/40
f 37/37/37 38/38/38 39/39/39
f 41/41/41 43/43/43 44/44/44
f 41/41/41 42/42/42 43/43/43
f 45/45/45 47/47/47 48/48/48
f 45/45/45 46/46/46 47/47/47

# 2
v 0.07231568 0.1247456 0.030625
v -0.1441907 -0.000254415 0.030625
v -0.07231568 -0.1247456 0.030625
v 0.1441907 0.000254415 0.030625
v -0.1441907 -0.000254415 -0.031875
v 0.07231568 0.1247456 -0.031875
v 0.1441907 0.000254415 -0.031875
v -0.07231568 -0.1247456 -0.031875
v 0.07231568 0.1247456 -0.031875
v 0.07231568 0.1247456 0.030625
v 0.1441907 0.000254415 0.030625
v 0.1441907 0.000254415 -0.031875
v 0.1441907 0.000254415 0.030625
v -0.07231568 -0.1247456 0.030625
v -0.07231568 -0.1247456 -0.031875
v 0.1441907 0.000254415 -0.031875
v -0.1441907 -0.000254415 0.030625
v -0.1441907 -0.000254415 -0.031875
v -0.07231568 -0.1247456 -0.031875
v -0.07231568 -0.1247456 0.030625
v 0.07231568 0.1247456 -0.031875
v -0.1441907 -0.000254415 -0.031875
v -0.1441907 -0.000254415 0.030625
v 0.07231568 0.1247456 0.030625
vn 0 0 1
vn 0 0 1
vn 0 0 1
vn 0 0 1
vn 0 0 -1
vn 0 0 -1
vn 0 0 -1
vn 0 0 -1
vn 0.8660255 0.5 0
vn 0.8660255 0.5 0
vn 0.8660255 0.5 0
vn 0.8660255 0.5 0
vn 0.4999999 -0.8660254 0
vn 0.4999999 -0.8660254 0
vn 0.4999999 -0.8660254 0
vn 0.4999999 -0.8660254 0
vn -0.8660255 -0.5 0
vn -0.8660255 -0.5 0
vn -0.8660255 -0.5 0
vn -0.8660255 -0.5 0
vn -0.4999999 0.8660254 0
vn -0.4999999 0.8660254 0
vn -0.4999999 0.8660254 0
vn -0.4999999 0.8660254 0
vt 0.234375 0.109375
vt 0.203125 0.109375
vt 0.203125 0.078125
vt 0.234375 0.078125
vt 0.234375 0.109375
vt 0.203125 0.109375
vt 0.203125 0.078125
vt 0.234375 0.078125
vt 0.203125 0.109375
vt 0.1953125 0.109375
vt 0.1953125 0.078125
vt 0.203125 0.078125
vt 0.234375 0.125
vt 0.203125 0.125
vt 0.203125 0.109375
vt 0.234375 0.109375
vt 0.203125 0.109375
vt 0.1953125 0.109375
vt 0.1953125 0.078125
vt 0.203125 0.078125
vt 0.234375 0.125
vt 0.203125 0.125
vt 0.203125 0.109375
vt 0.234375 0.109375
f 49/49/49 51/51/51 52/52/52
f 49/49/49 50/50/50 51/51/51
f 53/53/53 55/55/55 56/56/56
f 53/53/53 54/54/54 55/55/55
f 57/57/57 59/59/59 60/60/60
f 57/57/57 58/58/58 59/59/59
f 61/61/61 63/63/63 64/64/64
f 61/61/61 62/62/62 63/63/63
f 65/65/65 67/67/67 68/68/68
f 65/65/65 66/66/66 67/67/67
f 69/69/69 71/71/71 72/72/72
f 69/69/69 70/70/70 71/71/71

# curseur
v -0.04419416 0.125 0.030625
v 9.313226E-09 0.08080582 0.030625
v 0.04419418 0.125 0.030625
v 5.587935E-09 0.1691942 0.030625
v 9.313226E-09 0.08080582 -0.031875
v -0.04419416 0.125 -0.031875
v 5.587935E-09 0.1691942 -0.031875
v 0.04419418 0.125 -0.031875
v -0.04419416 0.125 -0.031875
v -0.04419416 0.125 0.030625
v 5.587935E-09 0.1691942 0.030625
v 5.587935E-09 0.1691942 -0.031875
v 5.587935E-09 0.1691942 0.030625
v 0.04419418 0.125 0.030625
v 0.04419418 0.125 -0.031875
v 5.587935E-09 0.1691942 -0.031875
v 9.313226E-09 0.08080582 0.030625
v 9.313226E-09 0.08080582 -0.031875
v 0.04419418 0.125 -0.031875
v 0.04419418 0.125 0.030625
v -0.04419416 0.125 -0.031875
v 9.313226E-09 0.08080582 -0.031875
v 9.313226E-09 0.08080582 0.030625
v -0.04419416 0.125 0.030625
vn 0 0 1
vn 0 0 1
vn 0 0 1
vn 0 0 1
vn 0 0 -1
vn 0 0 -1
vn 0 0 -1
vn 0 0 -1
vn -0.7071068 0.7071068 0
vn -0.7071068 0.7071068 0
vn -0.7071068 0.7071068 0
vn -0.7071068 0.7071068 0
vn 0.7071068 0.7071068 0
vn 0.7071068 0.7071068 0
vn 0.7071068 0.7071068 0
vn 0.7071068 0.7071068 0
vn 0.7071068 -0.7071068 0
vn 0.7071068 -0.7071068 0
vn 0.7071068 -0.7071068 0
vn 0.7071068 -0.7071068 0
vn -0.7071068 -0.7071068 0
vn -0.7071068 -0.7071068 0
vn -0.7071068 -0.7071068 0
vn -0.7071068 -0.7071068 0
vt 0.265625 0.109375
vt 0.2578125 0.109375
vt 0.2578125 0.09375
vt 0.265625 0.09375
vt 0.265625 0.109375
vt 0.2578125 0.109375
vt 0.2578125 0.09375
vt 0.265625 0.09375
vt 0.2578125 0.109375
vt 0.25 0.109375
vt 0.25 0.09375
vt 0.2578125 0.09375
vt 0.265625 0.125
vt 0.2578125 0.125
vt 0.2578125 0.109375
vt 0.265625 0.109375
vt 0.2578125 0.109375
vt 0.25 0.109375
vt 0.25 0.09375
vt 0.2578125 0.09375
vt 0.265625 0.125
vt 0.2578125 0.125
vt 0.2578125 0.109375
vt 0.265625 0.109375
f 73/73/73 75/75/75 76/76/76
f 73/73/73 74/74/74 75/75/75
f 77/77/77 79/79/79 80/80/80
f 77/77/77 78/78/78 79/79/79
f 81/81/81 83/83/83 84/84/84
f 81/81/81 82/82/82 83/83/83
f 85/85/85 87/87/87 88/88/88
f 85/85/85 86/86/86 87/87/87
f 89/89/89 91/91/91 92/92/92
f 89/89/89 90/90/90 91/91/91
f 93/93/93 95/95/95 96/96/96
f 93/93/93 94/94/94 95/95/95

